<svg width="72" height="72" viewBox="0 0 72 72" fill="none" xmlns="http://www.w3.org/2000/svg">
<path d="M28.5 31H30.1667M30.1667 31H43.5M30.1667 31V42.6666C30.1667 43.1087 30.3423 43.5326 30.6548 43.8451C30.9674 44.1577 31.3913 44.3333 31.8333 44.3333H40.1667C40.6087 44.3333 41.0326 44.1577 41.3452 43.8451C41.6577 43.5326 41.8333 43.1087 41.8333 42.6666V31H30.1667ZM32.6667 31V29.3333C32.6667 28.8913 32.8423 28.4673 33.1548 28.1548C33.4674 27.8422 33.8913 27.6666 34.3333 27.6666H37.6667C38.1087 27.6666 38.5326 27.8422 38.8452 28.1548C39.1577 28.4673 39.3333 28.8913 39.3333 29.3333V31M34.3333 35.1666V40.1666M37.6667 35.1666V40.1666" stroke="#667085" stroke-width="1.66667" stroke-linecap="round" stroke-linejoin="round"/>
</svg>
