<svg width="40" height="40" viewBox="0 0 40 40" fill="none" xmlns="http://www.w3.org/2000/svg">
<rect width="40" height="40" rx="6" fill="white"/>
<g clip-path="url(#clip0_2_27623)">
<path d="M20 22.4999C21.3807 22.4999 22.5 21.3806 22.5 19.9999C22.5 18.6192 21.3807 17.4999 20 17.4999C18.6193 17.4999 17.5 18.6192 17.5 19.9999C17.5 21.3806 18.6193 22.4999 20 22.4999Z" stroke="#667085" stroke-width="1.66667" stroke-linecap="round" stroke-linejoin="round"/>
<path d="M26.1667 22.4999C26.0557 22.7513 26.0226 23.0301 26.0717 23.3004C26.1207 23.5707 26.2495 23.8202 26.4417 24.0166L26.4917 24.0666C26.6466 24.2214 26.7696 24.4052 26.8534 24.6075C26.9373 24.8098 26.9805 25.0267 26.9805 25.2458C26.9805 25.4648 26.9373 25.6817 26.8534 25.884C26.7696 26.0863 26.6466 26.2701 26.4917 26.4249C26.3369 26.5799 26.1531 26.7028 25.9507 26.7867C25.7484 26.8706 25.5315 26.9137 25.3125 26.9137C25.0935 26.9137 24.8766 26.8706 24.6743 26.7867C24.4719 26.7028 24.2881 26.5799 24.1333 26.4249L24.0833 26.3749C23.8869 26.1828 23.6375 26.0539 23.3672 26.0049C23.0968 25.9559 22.818 25.989 22.5667 26.0999C22.3202 26.2056 22.11 26.381 21.9619 26.6045C21.8139 26.8281 21.7344 27.0901 21.7333 27.3583V27.4999C21.7333 27.9419 21.5577 28.3659 21.2452 28.6784C20.9326 28.991 20.5087 29.1666 20.0667 29.1666C19.6246 29.1666 19.2007 28.991 18.8881 28.6784C18.5756 28.3659 18.4 27.9419 18.4 27.4999V27.4249C18.3935 27.1491 18.3043 26.8816 18.1438 26.6572C17.9832 26.4328 17.7589 26.2618 17.5 26.1666C17.2486 26.0557 16.9698 26.0226 16.6995 26.0716C16.4292 26.1206 16.1797 26.2495 15.9833 26.4416L15.9333 26.4916C15.7785 26.6465 15.5947 26.7695 15.3924 26.8533C15.1901 26.9372 14.9732 26.9804 14.7542 26.9804C14.5351 26.9804 14.3183 26.9372 14.1159 26.8533C13.9136 26.7695 13.7298 26.6465 13.575 26.4916C13.42 26.3368 13.2971 26.153 13.2132 25.9507C13.1294 25.7483 13.0862 25.5314 13.0862 25.3124C13.0862 25.0934 13.1294 24.8765 13.2132 24.6742C13.2971 24.4719 13.42 24.288 13.575 24.1332L13.625 24.0833C13.8171 23.8869 13.946 23.6374 13.995 23.3671C14.044 23.0967 14.0109 22.8179 13.9 22.5666C13.7944 22.3201 13.619 22.1099 13.3954 21.9618C13.1718 21.8138 12.9098 21.7343 12.6417 21.7333H12.5C12.058 21.7333 11.634 21.5577 11.3215 21.2451C11.0089 20.9325 10.8333 20.5086 10.8333 20.0666C10.8333 19.6246 11.0089 19.2006 11.3215 18.8881C11.634 18.5755 12.058 18.3999 12.5 18.3999H12.575C12.8508 18.3935 13.1183 18.3042 13.3427 18.1437C13.5672 17.9832 13.7381 17.7589 13.8333 17.4999C13.9443 17.2486 13.9773 16.9698 13.9283 16.6994C13.8793 16.4291 13.7504 16.1797 13.5583 15.9833L13.5083 15.9333C13.3534 15.7785 13.2304 15.5946 13.1466 15.3923C13.0627 15.19 13.0195 14.9731 13.0195 14.7541C13.0195 14.5351 13.0627 14.3182 13.1466 14.1159C13.2304 13.9135 13.3534 13.7297 13.5083 13.5749C13.6631 13.42 13.8469 13.297 14.0493 13.2132C14.2516 13.1293 14.4685 13.0861 14.6875 13.0861C14.9065 13.0861 15.1234 13.1293 15.3257 13.2132C15.5281 13.297 15.7119 13.42 15.8667 13.5749L15.9167 13.6249C16.1131 13.817 16.3625 13.9459 16.6328 13.9949C16.9032 14.0439 17.182 14.0108 17.4333 13.8999H17.5C17.7465 13.7943 17.9567 13.6189 18.1047 13.3953C18.2528 13.1717 18.3323 12.9097 18.3333 12.6416V12.4999C18.3333 12.0579 18.5089 11.634 18.8215 11.3214C19.134 11.0088 19.558 10.8333 20 10.8333C20.442 10.8333 20.8659 11.0088 21.1785 11.3214C21.4911 11.634 21.6667 12.0579 21.6667 12.4999V12.5749C21.6677 12.8431 21.7472 13.1051 21.8952 13.3286C22.0433 13.5522 22.2535 13.7276 22.5 13.8333C22.7513 13.9442 23.0302 13.9773 23.3005 13.9283C23.5708 13.8792 23.8203 13.7504 24.0167 13.5583L24.0667 13.5083C24.2214 13.3533 24.4053 13.2304 24.6076 13.1465C24.8099 13.0626 25.0268 13.0194 25.2458 13.0194C25.4649 13.0194 25.6817 13.0626 25.8841 13.1465C26.0864 13.2304 26.2702 13.3533 26.425 13.5083C26.58 13.663 26.7029 13.8469 26.7868 14.0492C26.8706 14.2515 26.9138 14.4684 26.9138 14.6874C26.9138 14.9064 26.8706 15.1233 26.7868 15.3257C26.7029 15.528 26.58 15.7118 26.425 15.8666L26.375 15.9166C26.1829 16.113 26.054 16.3624 26.005 16.6328C25.956 16.9031 25.9891 17.1819 26.1 17.4333V17.4999C26.2056 17.7464 26.381 17.9566 26.6046 18.1047C26.8282 18.2527 27.0902 18.3322 27.3583 18.3333H27.5C27.942 18.3333 28.3659 18.5088 28.6785 18.8214C28.9911 19.134 29.1667 19.5579 29.1667 19.9999C29.1667 20.4419 28.9911 20.8659 28.6785 21.1784C28.3659 21.491 27.942 21.6666 27.5 21.6666H27.425C27.1568 21.6677 26.8948 21.7471 26.6713 21.8952C26.4477 22.0432 26.2723 22.2534 26.1667 22.4999Z" stroke="#667085" stroke-width="1.66667" stroke-linecap="round" stroke-linejoin="round"/>
</g>
<defs>
<clipPath id="clip0_2_27623">
<rect width="20" height="20" fill="white" transform="translate(10 10)"/>
</clipPath>
</defs>
</svg>
